REM DIRINDEX 1\2\6,1\2\7,1\2\8,1\2\9,1\3\10,1\3\11,1\4\12,1\4\13,1\4\14,1\5\15,1\5\16,1\5\17
REM DIRNAME folder01,folder02,folder03,folder04,folder05,folder06,folder07,folder08,folder09,folder10,folder11,folder12,folder13,folder14,folder15,folder16,folder17
TITLE ""
FILE "1900_2_sec03_0231_0246.mp3" MP3
  TRACK 01 AUDIO
    TITLE "0:"
    INDEX 01 00:00:00
  TRACK 02 AUDIO
    TITLE "13:cjc020_2555"
    INDEX 01 00:00:19
  TRACK 03 AUDIO
    TITLE "0:"
    INDEX 01 00:01:34
  TRACK 04 AUDIO
    TITLE "14:cjc020_2556"
    INDEX 01 00:01:40
  TRACK 05 AUDIO
    TITLE "0:"
    INDEX 01 00:04:13
  TRACK 06 AUDIO
    TITLE "13:cjc020_2557"
    INDEX 01 00:04:70
  TRACK 07 AUDIO
    TITLE "0:"
    INDEX 01 00:05:67
  TRACK 08 AUDIO
    TITLE "14:cjc020_2558"
    INDEX 01 00:05:71
  TRACK 09 AUDIO
    TITLE "0:"
    INDEX 01 00:08:13
  TRACK 10 AUDIO
    TITLE "13:cjc020_2559"
    INDEX 01 00:08:68
  TRACK 11 AUDIO
    TITLE "0:"
    INDEX 01 00:09:73
  TRACK 12 AUDIO
    TITLE "14:cjc020_2560"
    INDEX 01 00:10:02
  TRACK 13 AUDIO
    TITLE "0:"
    INDEX 01 00:14:53
  TRACK 14 AUDIO
    TITLE "13:cjc020_2561"
    INDEX 01 00:15:32
  TRACK 15 AUDIO
    TITLE "0:"
    INDEX 01 00:16:49
  TRACK 16 AUDIO
    TITLE "14:cjc020_2562"
    INDEX 01 00:16:51
  TRACK 17 AUDIO
    TITLE "0:"
    INDEX 01 00:19:20
  TRACK 18 AUDIO
    TITLE "13:cjc020_2563"
    INDEX 01 00:19:73
  TRACK 19 AUDIO
    TITLE "0:"
    INDEX 01 00:21:08
  TRACK 20 AUDIO
    TITLE "14:cjc020_2564"
    INDEX 01 00:21:09
  TRACK 21 AUDIO
    TITLE "0:"
    INDEX 01 00:23:14
  TRACK 22 AUDIO
    TITLE "13:cjc020_2565"
    INDEX 01 00:23:67
  TRACK 23 AUDIO
    TITLE "0:"
    INDEX 01 00:25:01
  TRACK 24 AUDIO
    TITLE "14:cjc020_2566"
    INDEX 01 00:25:05
  TRACK 25 AUDIO
    TITLE "0:"
    INDEX 01 00:26:24
  TRACK 26 AUDIO
    TITLE "13:cjc020_2567"
    INDEX 01 00:27:06
  TRACK 27 AUDIO
    TITLE "0:"
    INDEX 01 00:28:25
  TRACK 28 AUDIO
    TITLE "14:cjc020_2568"
    INDEX 01 00:28:33
  TRACK 29 AUDIO
    TITLE "0:"
    INDEX 01 00:29:64
  TRACK 30 AUDIO
    TITLE "13:cjc020_2569"
    INDEX 01 00:30:42
  TRACK 31 AUDIO
    TITLE "0:"
    INDEX 01 00:31:61
  TRACK 32 AUDIO
    TITLE "14:cjc020_2570"
    INDEX 01 00:31:63
  TRACK 33 AUDIO
    TITLE "0:"
    INDEX 01 00:36:07
  TRACK 34 AUDIO
    TITLE "13:cjc020_2571"
    INDEX 01 00:36:62
  TRACK 35 AUDIO
    TITLE "0:"
    INDEX 01 00:37:73
  TRACK 36 AUDIO
    TITLE "14:cjc020_2572"
    INDEX 01 00:38:02
  TRACK 37 AUDIO
    TITLE "0:"
    INDEX 01 00:39:31
  TRACK 38 AUDIO
    TITLE "13:cjc020_2573"
    INDEX 01 00:40:13
  TRACK 39 AUDIO
    TITLE "0:"
    INDEX 01 00:41:26
  TRACK 40 AUDIO
    TITLE "14:cjc020_2574"
    INDEX 01 00:41:28
  TRACK 41 AUDIO
    TITLE "0:"
    INDEX 01 00:45:61
  TRACK 42 AUDIO
    TITLE "12:cjc020_2575"
    INDEX 01 00:47:34
  TRACK 43 AUDIO
    TITLE "0:"
    INDEX 01 00:48:59
  TRACK 44 AUDIO
    TITLE "13:cjc020_2576"
    INDEX 01 00:49:59
  TRACK 45 AUDIO
    TITLE "0:"
    INDEX 01 00:50:58
  TRACK 46 AUDIO
    TITLE "14:cjc020_2577"
    INDEX 01 00:50:62
  TRACK 47 AUDIO
    TITLE "0:"
    INDEX 01 00:52:67
  TRACK 48 AUDIO
    TITLE "13:cjc020_2578"
    INDEX 01 00:53:47
  TRACK 49 AUDIO
    TITLE "0:"
    INDEX 01 00:54:44
  TRACK 50 AUDIO
    TITLE "14:cjc020_2579"
    INDEX 01 00:54:46
  TRACK 51 AUDIO
    TITLE "0:"
    INDEX 01 00:55:59
  TRACK 52 AUDIO
    TITLE "13:cjc020_2580"
    INDEX 01 00:56:41
  TRACK 53 AUDIO
    TITLE "0:"
    INDEX 01 00:57:52
  TRACK 54 AUDIO
    TITLE "14:cjc020_2581"
    INDEX 01 00:57:62
  TRACK 55 AUDIO
    TITLE "0:"
    INDEX 01 01:02:06
  TRACK 56 AUDIO
    TITLE "13:cjc020_2582"
    INDEX 01 01:02:59
  TRACK 57 AUDIO
    TITLE "0:"
    INDEX 01 01:03:65
  TRACK 58 AUDIO
    TITLE "14:cjc020_2583"
    INDEX 01 01:03:69
  TRACK 59 AUDIO
    TITLE "0:"
    INDEX 01 01:06:10
  TRACK 60 AUDIO
    TITLE "13:cjc020_2584"
    INDEX 01 01:06:65
  TRACK 61 AUDIO
    TITLE "0:"
    INDEX 01 01:08:19
  TRACK 62 AUDIO
    TITLE "14:cjc020_2585"
    INDEX 01 01:08:23
  TRACK 63 AUDIO
    TITLE "0:"
    INDEX 01 01:09:40
  TRACK 64 AUDIO
    TITLE "13:cjc020_2586"
    INDEX 01 01:10:20
  TRACK 65 AUDIO
    TITLE "0:"
    INDEX 01 01:11:19
  TRACK 66 AUDIO
    TITLE "14:cjc020_2587"
    INDEX 01 01:11:23
  TRACK 67 AUDIO
    TITLE "0:"
    INDEX 01 01:16:26
